<?xml version="1.0" encoding="iso-8859-1"?>
<!-- Uploaded to: SVG Repo, www.svgrepo.com, Generator: SVG Repo Mixer Tools -->
<svg height="800px" width="800px" version="1.1" id="Layer_1" xmlns="http://www.w3.org/2000/svg" xmlns:xlink="http://www.w3.org/1999/xlink" 
	 viewBox="0 0 512.001 512.001" xml:space="preserve">
<path style="fill:#4FC0E8;" d="M512.001,256.006c0,141.395-114.606,255.998-255.996,255.994
	C114.606,512.004,0.001,397.402,0.001,256.006C-0.007,114.61,114.606,0,256.005,0C397.395,0,512.001,114.614,512.001,256.006z"/>
<path style="fill:#3DAED9;" d="M498.97,336.633L257.308,94.97c-0.001-0.001-0.001-0.001-0.001-0.001l-3.335-3.335
	c-0.634-0.636-1.393-1.142-2.235-1.494c-0.838-0.35-1.744-0.539-2.67-0.539H96.534c-3.829,0-6.933,3.104-6.933,6.933v291.2
	c0,2.347,1.243,4.32,3.027,5.574c0.462,0.658,112.783,112.978,113.441,113.441c0.117,0.167,0.297,0.272,0.426,0.426
	c16.022,3.14,32.567,4.828,49.511,4.827C369.214,512.003,465.185,438.5,498.97,336.633z"/>
<g>
	<path style="fill:#F4F6F9;" d="M249.067,172.8h62.4v48.533h13.867v-55.467c0-0.926-0.189-1.831-0.539-2.67
		c-0.352-0.842-0.859-1.6-1.494-2.235l-69.329-69.329c-0.635-0.635-1.393-1.142-2.235-1.494c-0.838-0.35-1.744-0.539-2.67-0.539
		H96.534c-3.829,0-6.933,3.104-6.933,6.933v291.2c0,3.829,3.104,6.933,6.933,6.933h138.667V380.8H103.467V103.467h138.667v62.4
		C242.134,169.696,245.238,172.8,249.067,172.8z M256.001,113.27l45.662,45.663h-45.662V113.27z"/>
	<path style="fill:#F4F6F9;" d="M421.669,412.366l-83.2-166.4c-2.35-4.699-10.054-4.699-12.404,0l-83.2,166.4
		c-1.073,2.149-0.958,4.702,0.305,6.747c1.263,2.042,3.493,3.287,5.898,3.287h166.4c2.403,0,4.635-1.246,5.898-3.287
		C422.627,417.068,422.742,414.515,421.669,412.366z M260.286,408.533l71.981-143.965l71.981,143.965H260.286z"/>
	<path style="fill:#F4F6F9;" d="M325.334,317.14v45.378c0,3.829,3.104,6.933,6.933,6.933c3.829,0,6.933-3.104,6.933-6.933V317.14
		c0-3.829-3.104-6.933-6.933-6.933C328.438,310.207,325.334,313.312,325.334,317.14z"/>
	<path style="fill:#F4F6F9;" d="M332.267,378.275c-3.83,0-6.933,3.116-6.933,6.94c0,3.836,3.103,6.927,6.933,6.927
		c3.837,0,6.933-3.091,6.933-6.927C339.201,381.391,336.104,378.275,332.267,378.275z"/>
</g>
</svg>